<svg version="1.0" xmlns="http://www.w3.org/2000/svg" width="32" height="20"><path d="M29 0H3a3 3 0 00-3 3v14a3 3 0 003 3h26a3 3 0 003-3V3a3 3 0 00-3-3zM14.4 15.85c-.54.11-1.1.17-1.67.17-.7 0-1.36-.1-1.98-.32-.62-.22-1.17-.57-1.65-1.05s-.85-1.1-1.13-1.86A8.15 8.15 0 017.55 10c0-1.13.16-2.08.47-2.85a5.2 5.2 0 011.23-1.86c.5-.46 1.06-.8 1.68-1 .61-.2 1.23-.31 1.85-.31.66 0 1.22.04 1.68.13.45.1.83.2 1.13.32l-.45 1.92c-.25-.12-.56-.21-.9-.27A8.24 8.24 0 0012.97 6c-.91 0-1.65.33-2.2.98-.56.65-.84 1.66-.84 3.03 0 .6.07 1.14.2 1.63.13.5.33.91.6 1.26.27.35.61.62 1.01.81.4.2.87.3 1.4.3.5 0 .91-.06 1.26-.16.34-.1.63-.22.89-.38l.46 1.84c-.35.25-.8.43-1.35.54zm8.7 0c-.54.11-1.1.17-1.68.17-.7 0-1.35-.1-1.97-.32-.63-.22-1.18-.57-1.65-1.05s-.85-1.1-1.13-1.86a8.13 8.13 0 01-.42-2.79c0-1.13.15-2.08.47-2.85a5.2 5.2 0 011.22-1.86c.5-.46 1.06-.8 1.68-1 .62-.2 1.23-.31 1.85-.31.66 0 1.22.04 1.68.13.46.1.84.2 1.13.32l-.44 1.91c-.26-.12-.56-.2-.9-.26A8.57 8.57 0 0021.67 6c-.92 0-1.65.33-2.2.98-.56.65-.84 1.66-.84 3.03 0 .6.07 1.14.2 1.63.13.5.33.91.6 1.26.27.35.6.62 1 .81.41.2.88.3 1.4.3.5 0 .92-.06 1.26-.16.34-.1.64-.22.9-.38l.46 1.84c-.35.25-.8.43-1.35.54z"/></svg>
