<svg xmlns="http://www.w3.org/2000/svg" viewBox="0 0 63 75"><path fill="#81b3d2" d="M60.16 22.23H35.77c13.6-6.82 14.69-11.12 14.19-13.52-1.15-3.92-5.6-6.94-9.85-5.34-5.49 2.06-7.03 10.26-8.52 16.19-1.89-6-3.72-13.65-8-17.53a7.19 7.19 0 00-5.68-2c-3.97.35-9.65 5.32-7.35 10.85 2.22 5.31 9.54 8.67 14.36 11.35H2.83A2.84 2.84 0 000 25.07v11.18a2.84 2.84 0 002.83 2.83h.27v36h56.96v-36h.1A2.84 2.84 0 0063 36.25V25.07a2.85 2.85 0 00-2.84-2.84zM41.77 5.87c2.08-.3 4.91 1.29 5.18 3.17.39 2.73-3.35 5.2-5 6.35-2.49 1.72-4.86 2.6-7.18 4 .87-3.64 2.5-12.85 7-13.52zm-22.53 9.85c-2.19-1.47-6.44-4.38-6.34-7.68.11-3.55 5.66-6.49 8.68-3.84 3.8 3.33 5.63 10.98 7.01 16.36-3.2-1.52-6.23-2.75-9.35-4.84zm5.88 56.43H6.04V39.08h19.07v33.07zm0-36.07H3V25.23h22.11v10.85zm10 36.07h-7.06V25.23h7.07v46.92zm22.02 0H38.05V39.08h19.07v33.07zM60 36.08H38.05V25.23H60v10.85z"/></svg>
