<svg xmlns="http://www.w3.org/2000/svg" width="76.17" height="68.96"><path d="M71.91 46.04H4.25A4.26 4.26 0 000 50.3v3.46A4.27 4.27 0 004.25 58h.96v1.04a9.95 9.95 0 009.92 9.92h45.9a9.95 9.95 0 009.93-9.92V58h.95a4.26 4.26 0 004.26-4.25v-3.46a4.26 4.26 0 00-4.26-4.25zm-3.95 13c0 3.81-3.1 6.92-6.92 6.92H15.13a6.93 6.93 0 01-6.92-6.92V58h59.75v1.04zm5.2-5.3c0 .69-.57 1.26-1.25 1.26H4.25C3.57 55 3 54.43 3 53.75v-3.46c0-.68.57-1.25 1.25-1.25h67.66c.68 0 1.26.57 1.26 1.25v3.46zM16.16 37.86l5.48 4 5.47-4 5.48 4 5.48-4 5.48 4 5.48-4 5.48 4 5.48-4 5.48 4 6.37-4.65-1.77-2.42-4.6 3.35-5.48-4-5.48 4-5.48-4-5.48 4-5.48-4-5.48 4-5.48-4-5.47 4-5.48-4-5.47 4-4.6-3.35-1.77 2.42 6.37 4.65zM70.89 31.1c.04-.62.05-2.62.04-3C70.24 12.47 55.8 0 38.08 0S5.92 12.48 5.24 28.1c-.02.38 0 2.38.04 3h65.6zM38.09 3C54.1 3 67.22 14.15 67.91 28.1H8.24C8.94 14.14 22.05 3 38.08 3z"/><circle cx="38.08" cy="15.04" r="2"/><circle cx="30.08" cy="10.08" r="2"/><circle cx="46.08" cy="10.08" r="2"/></svg>