<svg class="page-header__logo-image" xmlns="http://www.w3.org/2000/svg" viewBox="0 0 188 96" width="188" height="96">
<path class="page-header__logo-border" fill="#81B3D3" d="M186.64 0H0l80.49 90.47c7.06 7.94 18.6 7.94 25.67 0L186.64 0z"/>
<path fill="#23A9E1" d="M43.24.72l49.52 58.35 49.33-58z"/>
<path fill="#FFF" d="M122.02 17.33l-15.18.09c6-6.94 8.7-6.2 15.18-.09zM80.85 22.69h26.68c-1.99-1.23-6.7-7.06-9.3-4.9-.22.19-7.51-8.84-12.3-4.5-4.18 3.8-6.12-.49-10.86 2.52-5.4 3.57 3.12 5.67 5.78 6.88z"/>
<path fill="#491213" d="M93.1.02H42.18v22.46L92.77 84l.33-.42 50.75-60.4V.02H93.1zm0 57.05l-.33.4L45.88 1.8h94.42l-47.2 55.28z"/><path fill="#491213" d="M92.77 57.48l.33-.41 27.58-32.29c-6.91.95-11.86 6.08-18.6 4.96-3.4-.57-3.5-2.52-4.47-4.46-.75-1.5-1.94-1.3-3.49-1.91-1.44-.56-2.28-1.74-5.16-1.06-2.53.6-2.8 4.52-5.95 4.3-1.7-.13-1.81-2.5-4.25-5.55-6.3-7.57-12.16-6.52-16.24.48l30.24 35.94z"/><path fill="#23A9E1" d="M88.75 70.92l4.02-6.5 4 6.5-4 6.51z"/><path fill="#491213" d="M124.57 20.26a60.1 60.1 0 00-9.46-7.64C109.83 9.15 101.66 5 92.76 4.95 83.84 4.9 75.8 9.04 70.6 12.52a56.86 56.86 0 00-9.21 7.65l-.7-.65c.03-.04 3.65-3.96 9.38-7.8 5.3-3.55 13.54-7.77 22.7-7.73 9.14.05 17.49 4.29 22.89 7.84a61.08 61.08 0 019.6 7.77l-.7.66zM48.36 1.2h.78v6.63h-.78zM54.12.93h.78v12.63h-.78z"/><path fill="#491213" d="M60.36 1.02h.78v18.43h-.78zM66.78.93h.78v13.49h-.78zM73.42.82h.78V10h-.78zM80.33 1.07h.78v5.68h-.78zM86.68.92h.78v4.1h-.78z"/><path fill="#491213" d="M66.85 14.54L60.41 2l.69-.36 6.44 12.54zM73.57 10.27l-6.66-8.2.6-.5 6.67 8.21zM79.52 7.4l-5.97-5.28.52-.59 5.96 5.3zM86.9 5.26l-6.32-3.08.34-.7 6.32 3.08zM92.56 4.8l-5.67-2.63.33-.71 5.67 2.62zM136.32 1.26h.78v5.78h-.78zM130.57.72h.78v12.97h-.78zM124.33 1.26h.78v18.46h-.78zM117.91 1.03h.78v13.24h-.78zM111.27.99h.78V10h-.78zM104.36.68h.78v6.08h-.78zM97.88 1.17h1.01v3.85h-1.01z"/><path fill="#491213" d="M118.67 14.4l-.7-.35 6.4-12.4.7.35zM111.94 10.16l-.6-.5 6.63-8.08.6.5zM105.94 7.4l-.52-.58 5.96-5.29.52.59zM98.57 5.26l-.34-.7 6.32-3.08.34.7zM92.9 4.8l-.32-.71 5.68-2.62.32.7z"/><path fill="#FFF" d="M65.46 32.27c.52.61.9 1.28.81 2.11-.06.58-.94 1.55-.27 1.85l2.24-2.84c-.6-.15-5.36-5.84-5.44-6.47l-3.16 1.73c.17.67 1.3.01 1.86.05.82.06 1.42.56 1.95 1.15-1.73 1.45-5.93 5.02-6.38 5.1-.22.03-1.08-.6-1.1-.06 0 .26.86 1.01 1.02 1.2.74.9 1.48 1.78 2.23 2.66.62-.28-.11-.73.2-1.24.23-.38 4.9-4.27 6.04-5.24zM60.2 25.29c.43-.1.61.43.95-.06L58.7 22.3c-.37-.44-.84-.91-.7.02.08.63-6.12 5.66-6.5 5.82-.48.2-.76-.42-1.1.1l2.18 2.6c.25.3.48.62.75.89.34.34.21-.67.23-.59-.1-.51.52-.95.85-1.23 1.55-1.36 5.4-4.58 5.78-4.64zM51.42 24.37c-1.77.52-3.65-.17-4.2-2.04-.55-1.84.6-3.76 2.06-4.8 1.44-1.04 3.6-.98 4.38.83.34.8.15 1.7-.1 2.5-.16.51-.6 1 .06 1.3l2.58-3.3c-1.06-.63-1.52-1.68-2.3-2.59-.88-1.07-2.06-2.08-3.48-2.28-2.87-.4-5.58 2.56-5.8 5.24a5.76 5.76 0 001.25 4c.75 1 1.87 1.63 2.43 2.76.27.1 2.7-1.03 3.29-1.26-.05-.1-.09-.27-.17-.36-.76.22 0 0 0 0zM90.72 60.78c-1.15-.77-4.03-4.7-4.57-5.34l-.33-.4c-.01-.01-.29.23-.25.2-.17.14.14.57-.05.86-.8 1.24-5.76 4.98-6.02 5.16-.55.39-1.16-.16-1.49.32.72.85 2.78 3.54 3.02 3.58.48.08.15-.81.21-1 .13-.37 2.64-2.44 3.55-3.21.34-.28.7.42.9.72.32.49.47 1 .29 1.57-.12.37-.72.92-.25 1.17l2.61-3.04c.26-.3-.56-.04-.47-.1-.37.2-.71.24-1.06-.02-.1-.07-1.09-1.08-.99-1.17.43-.36.96-.96 1.52-1.1.86-.2 1.58 1.52 1.7 2.13.13.58.11 1.19-.07 1.75-.12.39-.49.7.02.93l2.13-2.92a.7.7 0 01-.4-.1c-.13-.08.14.08 0 0zM80.5 56.65a5.34 5.34 0 00.76-7.34 5.38 5.38 0 00-7.8-1.06 5.31 5.31 0 00-.76 7.33c2 2.62 5.2 2.92 7.8 1.07 1.15-.98-.1.07 0 0zm-.47-4.76a7.45 7.45 0 01-3.73 3.67c-1.82.71-3.1-.83-2.36-2.55a7.45 7.45 0 013.74-3.67c1.85-.73 3.06.85 2.35 2.55-.38.9.07-.17 0 0zM74.05 42.04c.48.06.93.55 1.27.04l-2.23-2.64c-.6.27.05.55-.2.97-.23.43-2.55.78-3.17.9.23-.65.9-2.62 1.16-2.84.54-.45.88.43 1.28-.14l-2.74-3.26c-.31-.36-.56-1.02-.98-.68a8.4 8.4 0 01-.09 1.74c-.08.23-.93 3.63-1.92 4.47-.5.41-2.24 1.93-2.7 2.1-.55.18-.83-.6-1.23-.04L65 45.6c.12.15.6.87.76.9.52.09.06-.9.11-1.09.16-.43 2.5-2.72 3.5-2.86 1.46-.2 3.2-.7 4.68-.52.34.04-.35-.05 0 0z"/><path fill="#DC6243" d="M67.8 22.87c-4.05-.16-2.36-3.95.39-4.8 2.6-.82 8.09 1.71 9.84 3.4-2.78.85-6.39.73-9.45.87-.22-3.12-.95-2.03-.79.53zM68.8 27.72c-2.03-1.57-1.39-5.26 1.77-4.14 4 2.08-.86 3.24-1.76 4.14 0 0 .04-.04 0 0zM77.3 35.42c-8.62-.07-2.8-13.32.14-12.52 3.37 1.08 3 12.62-.14 12.52zM83.4 31.1c-.84 2.5-2.36 2.96-2.2-.08.2-3.5 2.49-2.66 4.94-4 2.04-1.12 3.14-5.21 6.64-2.76 1.56 1.09 3.35.17 3.85 1.83-.02-.09-4.54 10.3-2.03 10.3-4.96 0-2.77-5.92-.87-9.9-1.85.9-4.85 6.7-2.39 7.65-1.28 1.69-5.19 3.94-7.23 2.3-1.55-1.25-.7-3.33-.7-5.35zM87.5 40.7c-3.48 1.04-8.12-1.21-2.5-2.34 3.48-.7 7.18.77 2.5 2.34.15-.05-.12.04 0 0zM91.88 40.56c-.74-1.66.56-3.64 2.68-2.2 1.84 1.25-.86 3.1-2.69 2.2zM88.93 45.22c-2.41-.74-10.54-.56-5.22-2.76 1.64-.68 10.16.1 5.22 2.76zM92.14 44.87c0-.96-.5-2.68 1.36-1.94 2.23.87-1.36 2.65-1.36 1.94 0 0 0-.17 0 0zM99.36 48.54c-1.43-1.23-2.89-1.3-4.23 0-1.8-3.3-8.31-2.2-11.36-2.65 1.64 4.03 14.86 4.78 15.6 2.65zM97.46 50.96c-3.15-.14-6.67-.56-9.65.09 1.86.46 6.4 1.8 2.18 2.91 1.51 2.17 3.97 2.03 5.58.13-.66-.32-1.01-.72-1.55-1.06 1.67-.3 3.23-1.26 3.44-2.07z"/><g><path fill="#DC6243" d="M101.06 47.09c-5.3-3.12-3.95-5.43.35-7.6 2.25-1.12 7.32-5.2 9.45-3.84l-9.8 11.44z"/></g><g><path fill="#F49774" d="M97.3 39.8c-4.49-4.6 6.68-4.17 8.48-5.79 1.3.44 10.77-8.28 13.07-7.74-1.66 1.94-5.22 8.14-7.78 8.14-1.96 0-3.95-.3-5.47 1.1-2.22 2.05-5.9 3.1-8.3 4.3z"/></g><g><path fill="#F4B1A4" d="M98.76 34.18c-2.46 1.32-4.77-3.9-.54-3.4 2.81.34 5.66-.23 8.35.23a8.66 8.66 0 01-7.81 3.17z"/></g><g><path fill="#491213" d="M92.17 1.43h.94v3.31h-.94z"/></g><g><path fill="#FFF" d="M111.39 52.47c.2.64.3 1.33.21 2-.1.88-.97 2.93-2.17 2.35-1.17-.58-2.2-1.73-3.19-2.56.8-.93 1.51-1.75 2.86-1.3.37.13.69-.03.3-.25-.4-.24-3.12-1.97-3.26-1.8-.27.3.52.86.22 1.47-.23.45-.61.83-.93 1.22-.72-.6-1.93-1.25-1.06-2.26a3.69 3.69 0 012.1-1.34c.56-.11 1.84.39 2-.22l-3.26-1.57c.18.8-3.34 4.53-4.13 5.47-.11.13-.65.6-.66.8-.01.42.62.09.66.08.48-.18 6.81 5.1 6.97 5.47.1.28-.22.57-.03.73-.01-.01.23.22.25.18.4-.46 4.53-5.97 5.38-6.21-.8-1.22-1.6-2.43-2.37-3.65-.6.25-.02.94.11 1.39zM105.23 59.17c-2.08-1.34-5.6 1.28-6.13 1.53-1.03.5-1.78-.54-1.25-1.5.47-.83 1.4-1.24 2.31-1.3.28 0 1.35.2 1.46.03.13-.2.23-.22.04-.34l-2.56-1.73c-.18 1.05-1.39 1.72-2.08 2.44-.82.85-1.52 1.93-1.52 3.15 0 1.14.68 2.14 1.68 2.66 1.13.6 2.32.12 3.32-.5.63-.4 1.26-.86 1.93-1.18 1-.47 2.3-.06 1.95 1.27a3.6 3.6 0 01-2.4 2.34 3.3 3.3 0 01-1.88-.09c-.43-.14-1-.73-1.23-.11l3.48 2.54c.1-.76.53-1.1 1.09-1.57a11.7 11.7 0 002-2.13c1.15-1.69 1.53-4.06-.21-5.51zM105.23 59.17c.92.6-.6-.5 0 0zM134.46 21.86zM141.92 19.64c-.73.73-8.42-2.34-8.98-2.76-.3-.11-.3-1.32-.7-.83l-1.22 1.46-1.26 1.51c-.26.32-.54.46-.04.72.84-.41 5.42 7.35 5.01 8.47-.72.37-6.91-5.06-7.08-5.42-.05-.15.27-1.02-.21-.94-.23.03-.74.9-.89 1.07l-.89 1.07c.33.48.52-.02.96.04.38.08 1.84 1.33 2.24 1.66-.72.03-2.68.14-2.93.12-.9.11-.43-.66-1.02-.93l-2.28 2.76-1.32 1.6c-.06.07-.05.04.05.12.33.27.1.17.57 0 .5-.17 6.56 4.94 6.77 5.2.38.45-.15.97.41 1.22l1.8-2.19c.1-.1.14-.1.02-.2-.42-.35-.47.22-1 .16-.53-.09-4.4-3.37-5.9-4.61l8.2-.3c.3-.02 1.14.9 1.07 1.21-.08.38-.46.56.06.8.48-.58.98-1.15 1.45-1.74l.23-.28a.74.74 0 00.21-.27l.17-.2c.42-.5 1.8-2.01 1.63-2.16-.46-.4-.68.47-1.3-.05-.34-.25-1.22-1.79-1.44-2.16-.26-.45.61-.9.97-1.12.77-.48 3.24-1.18 3.48.35.04.25-.27.55-.09.7.05.04.2.24.27.16l3.3-3.97c-.1-.08-.2-.22-.32-.27zm-7.37 2.16c.07-.05.15-.1 0 0l-.09.05c.02 0 .05-.03.08-.05-.34.22-.66.48-.95.76l-1.57-2.69 3.53 1.48c-.36.1-.7.25-1 .45zM124.8 33.01c-2.37-1.98-5.63-1.4-7.58.83a5.39 5.39 0 00.6 7.62 5.37 5.37 0 007.57-.85 5.34 5.34 0 00-.59-7.6zm-.28 6.62l-.03.02c-1.23 1.3-3.35.1-4.5-.73s-3.11-2.57-1.86-4.1c1.06-1.29 3.13-.23 4.2.48 1.2.8 3.4 2.6 2.27 4.22l-.08.1z"/><path fill="#FFF" d="M124.8 33.01c1.17.96-.25-.2 0 0zM124.5 39.65l.02-.02a1.53 1.53 0 00-.03.02zM118.2 42.14c.12.09.28.22-.05-.06-2.84-2.13-6.2-1.5-8.4 1.16l-2.97 3.56c.35.52.77-.11 1.28.18.43.25 6.24 5.1 6.33 5.37.17.45-.25.54.15.87.17.14 4.53-5.24 4.93-6.2a4.34 4.34 0 00-1.26-4.88zm-1.3 6.75c-.25.3-.05.05-.67.65-.31.3-6.44-4.67-6.2-4.94.84-.92 2.57-1.56 3.58-1.3 2.2.56 5.21 3.26 3.28 5.59z"/></g></svg>
